<svg xmlns="http://www.w3.org/2000/svg">
  <defs>
    <!-- astro icon -->
    <symbol id="astro" viewBox="0 0 85 107">
      <path
        d="M27.5894 91.1365C22.7555 86.7178 21.3444 77.4335 23.3583 70.7072C26.8503 74.948 31.6888 76.2914 36.7005 77.0497C44.4375 78.2199 52.0359 77.7822 59.2232 74.2459C60.0454 73.841 60.8052 73.3027 61.7036 72.7574C62.378 74.714 62.5535 76.6892 62.318 78.6996C61.7452 83.5957 59.3086 87.3778 55.4332 90.2448C53.8835 91.3916 52.2437 92.4167 50.6432 93.4979C45.7262 96.8213 44.3959 100.718 46.2435 106.386C46.2874 106.525 46.3267 106.663 46.426 107C43.9155 105.876 42.0817 104.24 40.6845 102.089C39.2087 99.8193 38.5066 97.3081 38.4696 94.5909C38.4511 93.2686 38.4511 91.9345 38.2733 90.6309C37.8391 87.4527 36.3471 86.0297 33.5364 85.9478C30.6518 85.8636 28.37 87.6469 27.7649 90.4554C27.7187 90.6707 27.6517 90.8837 27.5847 91.1341L27.5894 91.1365Z"
        fill="#F041FF" />
      <path
        d="M0 69.5866C0 69.5866 14.3139 62.6137 28.6678 62.6137L39.4901 29.1204C39.8953 27.5007 41.0783 26.3999 42.4139 26.3999C43.7495 26.3999 44.9325 27.5007 45.3377 29.1204L56.1601 62.6137C73.1601 62.6137 84.8278 69.5866 84.8278 69.5866C84.8278 69.5866 60.5145 3.35233 60.467 3.21944C59.7692 1.2612 58.5911 0 57.0029 0H27.8274C26.2392 0 25.1087 1.2612 24.3634 3.21944C24.3108 3.34983 0 69.5866 0 69.5866Z"
        fill="currentColor" />
    </symbol>

    <!-- javascript icon -->
    <symbol id="javascript" viewBox="0 0 630 630">
      <rect width="630" height="630" fill="#f7df1e" />
      <path fill="black"
        d="m423.2 492.19c12.69 20.72 29.2 35.95 58.4 35.95 24.53 0 40.2-12.26 40.2-29.2 0-20.3-16.1-27.49-43.1-39.3l-14.8-6.35c-42.72-18.2-71.1-41-71.1-89.2 0-44.4 33.83-78.2 86.7-78.2 37.64 0 64.7 13.1 84.2 47.4l-46.1 29.6c-10.15-18.2-21.1-25.37-38.1-25.37-17.34 0-28.33 11-28.33 25.37 0 17.76 11 24.95 36.4 35.95l14.8 6.34c50.3 21.57 78.7 43.56 78.7 93 0 53.3-41.87 82.5-98.1 82.5-54.98 0-90.5-26.2-107.88-60.54zm-209.13 5.13c9.3 16.5 17.76 30.45 38.1 30.45 19.45 0 31.72-7.61 31.72-37.2v-201.3h59.2v202.1c0 61.3-35.94 89.2-88.4 89.2-47.4 0-74.85-24.53-88.81-54.075z" />
    </symbol>

    <!-- typescript icon -->
    <symbol id="typescript" fill="none" viewBox="0 0 512 512">
      <rect fill="#3178c6" height="512" rx="50" width="512" />
      <rect fill="#3178c6" height="512" rx="50" width="512" />
      <path clip-rule="evenodd" fill="#fff" fill-rule="evenodd"
        d="m316.939 407.424v50.061c8.138 4.172 17.763 7.3 28.875 9.386s22.823 3.129 35.135 3.129c11.999 0 23.397-1.147 34.196-3.442 10.799-2.294 20.268-6.075 28.406-11.342 8.138-5.266 14.581-12.15 19.328-20.65s7.121-19.007 7.121-31.522c0-9.074-1.356-17.026-4.069-23.857s-6.625-12.906-11.738-18.225c-5.112-5.319-11.242-10.091-18.389-14.315s-15.207-8.213-24.18-11.967c-6.573-2.712-12.468-5.345-17.685-7.9-5.217-2.556-9.651-5.163-13.303-7.822-3.652-2.66-6.469-5.476-8.451-8.448-1.982-2.973-2.974-6.336-2.974-10.091 0-3.441.887-6.544 2.661-9.308s4.278-5.136 7.512-7.118c3.235-1.981 7.199-3.52 11.894-4.615 4.696-1.095 9.912-1.642 15.651-1.642 4.173 0 8.581.313 13.224.938 4.643.626 9.312 1.591 14.008 2.894 4.695 1.304 9.259 2.947 13.694 4.928 4.434 1.982 8.529 4.276 12.285 6.884v-46.776c-7.616-2.92-15.937-5.084-24.962-6.492s-19.381-2.112-31.066-2.112c-11.895 0-23.163 1.278-33.805 3.833s-20.006 6.544-28.093 11.967c-8.086 5.424-14.476 12.333-19.171 20.729-4.695 8.395-7.043 18.433-7.043 30.114 0 14.914 4.304 27.638 12.912 38.172 8.607 10.533 21.675 19.45 39.204 26.751 6.886 2.816 13.303 5.579 19.25 8.291s11.086 5.528 15.415 8.448c4.33 2.92 7.747 6.101 10.252 9.543 2.504 3.441 3.756 7.352 3.756 11.733 0 3.233-.783 6.231-2.348 8.995s-3.939 5.162-7.121 7.196-7.147 3.624-11.894 4.771c-4.748 1.148-10.303 1.721-16.668 1.721-10.851 0-21.597-1.903-32.24-5.71-10.642-3.806-20.502-9.516-29.579-17.13zm-84.159-123.342h64.22v-41.082h-179v41.082h63.906v182.918h50.874z" />
    </symbol>

    <!-- tailwind icon -->
    <symbol id="tailwind" viewBox="0 0 47 40" fill="none">
      <path fill="#6366f1"
        d="M23.5 6.5C17.5 6.5 13.75 9.5 12.25 15.5C14.5 12.5 17.125 11.375 20.125 12.125C21.8367 12.5529 23.0601 13.7947 24.4142 15.1692C26.6202 17.4084 29.1734 20 34.75 20C40.75 20 44.5 17 46 11C43.75 14 41.125 15.125 38.125 14.375C36.4133 13.9471 35.1899 12.7053 33.8357 11.3308C31.6297 9.09158 29.0766 6.5 23.5 6.5ZM12.25 20C6.25 20 2.5 23 1 29C3.25 26 5.875 24.875 8.875 25.625C10.5867 26.0529 11.8101 27.2947 13.1642 28.6693C15.3702 30.9084 17.9234 33.5 23.5 33.5C29.5 33.5 33.25 30.5 34.75 24.5C32.5 27.5 29.875 28.625 26.875 27.875C25.1633 27.4471 23.9399 26.2053 22.5858 24.8307C20.3798 22.5916 17.8266 20 12.25 20Z" />
    </symbol>


    <!-- react icon -->
    <symbol id="react" viewBox="0 0 128 128">
      <g fill="#61DAFB">
        <circle cx="64" cy="64" r="11.4"></circle>
        <path
          d="M107.3 45.2c-2.2-.8-4.5-1.6-6.9-2.3.6-2.4 1.1-4.8 1.5-7.1 2.1-13.2-.2-22.5-6.6-26.1-1.9-1.1-4-1.6-6.4-1.6-7 0-15.9 5.2-24.9 13.9-9-8.7-17.9-13.9-24.9-13.9-2.4 0-4.5.5-6.4 1.6-6.4 3.7-8.7 13-6.6 26.1.4 2.3.9 4.7 1.5 7.1-2.4.7-4.7 1.4-6.9 2.3C8.2 50 1.4 56.6 1.4 64s6.9 14 19.3 18.8c2.2.8 4.5 1.6 6.9 2.3-.6 2.4-1.1 4.8-1.5 7.1-2.1 13.2.2 22.5 6.6 26.1 1.9 1.1 4 1.6 6.4 1.6 7.1 0 16-5.2 24.9-13.9 9 8.7 17.9 13.9 24.9 13.9 2.4 0 4.5-.5 6.4-1.6 6.4-3.7 8.7-13 6.6-26.1-.4-2.3-.9-4.7-1.5-7.1 2.4-.7 4.7-1.4 6.9-2.3 12.5-4.8 19.3-11.4 19.3-18.8s-6.8-14-19.3-18.8zM92.5 14.7c4.1 2.4 5.5 9.8 3.8 20.3-.3 2.1-.8 4.3-1.4 6.6-5.2-1.2-10.7-2-16.5-2.5-3.4-4.8-6.9-9.1-10.4-13 7.4-7.3 14.9-12.3 21-12.3 1.3 0 2.5.3 3.5.9zM81.3 74c-1.8 3.2-3.9 6.4-6.1 9.6-3.7.3-7.4.4-11.2.4-3.9 0-7.6-.1-11.2-.4-2.2-3.2-4.2-6.4-6-9.6-1.9-3.3-3.7-6.7-5.3-10 1.6-3.3 3.4-6.7 5.3-10 1.8-3.2 3.9-6.4 6.1-9.6 3.7-.3 7.4-.4 11.2-.4 3.9 0 7.6.1 11.2.4 2.2 3.2 4.2 6.4 6 9.6 1.9 3.3 3.7 6.7 5.3 10-1.7 3.3-3.4 6.6-5.3 10zm8.3-3.3c1.5 3.5 2.7 6.9 3.8 10.3-3.4.8-7 1.4-10.8 1.9 1.2-1.9 2.5-3.9 3.6-6 1.2-2.1 2.3-4.2 3.4-6.2zM64 97.8c-2.4-2.6-4.7-5.4-6.9-8.3 2.3.1 4.6.2 6.9.2 2.3 0 4.6-.1 6.9-.2-2.2 2.9-4.5 5.7-6.9 8.3zm-18.6-15c-3.8-.5-7.4-1.1-10.8-1.9 1.1-3.3 2.3-6.8 3.8-10.3 1.1 2 2.2 4.1 3.4 6.1 1.2 2.2 2.4 4.1 3.6 6.1zm-7-25.5c-1.5-3.5-2.7-6.9-3.8-10.3 3.4-.8 7-1.4 10.8-1.9-1.2 1.9-2.5 3.9-3.6 6-1.2 2.1-2.3 4.2-3.4 6.2zM64 30.2c2.4 2.6 4.7 5.4 6.9 8.3-2.3-.1-4.6-.2-6.9-.2-2.3 0-4.6.1-6.9.2 2.2-2.9 4.5-5.7 6.9-8.3zm22.2 21l-3.6-6c3.8.5 7.4 1.1 10.8 1.9-1.1 3.3-2.3 6.8-3.8 10.3-1.1-2.1-2.2-4.2-3.4-6.2zM31.7 35c-1.7-10.5-.3-17.9 3.8-20.3 1-.6 2.2-.9 3.5-.9 6 0 13.5 4.9 21 12.3-3.5 3.8-7 8.2-10.4 13-5.8.5-11.3 1.4-16.5 2.5-.6-2.3-1-4.5-1.4-6.6zM7 64c0-4.7 5.7-9.7 15.7-13.4 2-.8 4.2-1.5 6.4-2.1 1.6 5 3.6 10.3 6 15.6-2.4 5.3-4.5 10.5-6 15.5C15.3 75.6 7 69.6 7 64zm28.5 49.3c-4.1-2.4-5.5-9.8-3.8-20.3.3-2.1.8-4.3 1.4-6.6 5.2 1.2 10.7 2 16.5 2.5 3.4 4.8 6.9 9.1 10.4 13-7.4 7.3-14.9 12.3-21 12.3-1.3 0-2.5-.3-3.5-.9zM96.3 93c1.7 10.5.3 17.9-3.8 20.3-1 .6-2.2.9-3.5.9-6 0-13.5-4.9-21-12.3 3.5-3.8 7-8.2 10.4-13 5.8-.5 11.3-1.4 16.5-2.5.6 2.3 1 4.5 1.4 6.6zm9-15.6c-2 .8-4.2 1.5-6.4 2.1-1.6-5-3.6-10.3-6-15.6 2.4-5.3 4.5-10.5 6-15.5 13.8 4 22.1 10 22.1 15.6 0 4.7-5.8 9.7-15.7 13.4z">
        </path>
      </g>
    </symbol>

    <!-- next.js icon -->
    <symbol id="next.js" viewBox="0 0 128 128">
      <circle cx="64" cy="64" r="64"></circle>
      <path fill="url(#a)"
        d="M106.317 112.014 49.167 38.4H38.4v51.179h8.614v-40.24l52.54 67.884a64.216 64.216 0 0 0 6.763-5.209z"></path>
      <path fill="url(#b)" d="M81.778 38.4h8.533v51.2h-8.533z"></path>
      <defs>
        <linearGradient id="a" x1="109" x2="144.5" y1="116.5" y2="160.5" gradientTransform="scale(.71111)"
          gradientUnits="userSpaceOnUse">
          <stop stop-color="#fff"></stop>
          <stop offset="1" stop-color="#fff" stop-opacity="0"></stop>
        </linearGradient>
        <linearGradient id="b" x1="121" x2="120.799" y1="54" y2="106.875" gradientTransform="scale(.71111)"
          gradientUnits="userSpaceOnUse">
          <stop stop-color="#fff"></stop>
          <stop offset="1" stop-color="#fff" stop-opacity="0"></stop>
        </linearGradient>
      </defs>
    </symbol>

    <!-- ruby icon -->
    <symbol id="ruby" viewBox="0 0 128 128">
      <linearGradient id="ruby-original-a" gradientUnits="userSpaceOnUse" x1="157.08" y1="2382.05" x2="131.682"
        y2="2426.892" gradientTransform="matrix(1 0 0 -1 -47.5 2517)">
        <stop offset="0" stop-color="#FB7655"></stop>
        <stop offset="0" stop-color="#FB7655"></stop>
        <stop offset=".41" stop-color="#E42B1E"></stop>
        <stop offset=".99" stop-color="#900"></stop>
        <stop offset="1" stop-color="#900"></stop>
      </linearGradient>
      <path fill="url(#ruby-original-a)" d="M97.078 83.214L28.34 124.031l89.003-6.04 6.855-89.745z"></path>
      <linearGradient id="ruby-original-b" gradientUnits="userSpaceOnUse" x1="169.731" y1="2419.72" x2="136.998"
        y2="2441.685" gradientTransform="matrix(1 0 0 -1 -47.5 2517)">
        <stop offset="0" stop-color="#871101"></stop>
        <stop offset="0" stop-color="#871101"></stop>
        <stop offset=".99" stop-color="#911209"></stop>
        <stop offset="1" stop-color="#911209"></stop>
      </linearGradient>
      <path fill="url(#ruby-original-b)" d="M117.488 117.93l-7.649-52.799-20.837 27.514z"></path>
      <linearGradient id="ruby-original-c" gradientUnits="userSpaceOnUse" x1="143.542" y1="2380.69" x2="110.81"
        y2="2402.655" gradientTransform="matrix(1 0 0 -1 -47.5 2517)">
        <stop offset="0" stop-color="#871101"></stop>
        <stop offset="0" stop-color="#871101"></stop>
        <stop offset=".99" stop-color="#911209"></stop>
        <stop offset="1" stop-color="#911209"></stop>
      </linearGradient>
      <path fill="url(#ruby-original-c)" d="M117.592 117.93l-56.044-4.399-32.91 10.385z"></path>
      <linearGradient id="ruby-original-d" gradientUnits="userSpaceOnUse" x1="74.817" y1="2435.622" x2="79.891"
        y2="2402.644" gradientTransform="matrix(1 0 0 -1 -47.5 2517)">
        <stop offset="0" stop-color="#fff"></stop>
        <stop offset="0" stop-color="#fff"></stop>
        <stop offset=".23" stop-color="#E57252"></stop>
        <stop offset=".46" stop-color="#DE3B20"></stop>
        <stop offset=".99" stop-color="#A60003"></stop>
        <stop offset="1" stop-color="#A60003"></stop>
      </linearGradient>
      <path fill="url(#ruby-original-d)" d="M28.717 123.928l14.001-45.867-30.81 6.588z"></path>
      <linearGradient id="ruby-original-e" gradientUnits="userSpaceOnUse" x1="109.719" y1="2466.413" x2="111.589"
        y2="2432.757" gradientTransform="matrix(1 0 0 -1 -47.5 2517)">
        <stop offset="0" stop-color="#fff"></stop>
        <stop offset="0" stop-color="#fff"></stop>
        <stop offset=".23" stop-color="#E4714E"></stop>
        <stop offset=".56" stop-color="#BE1A0D"></stop>
        <stop offset=".99" stop-color="#A80D00"></stop>
        <stop offset="1" stop-color="#A80D00"></stop>
      </linearGradient>
      <path fill="url(#ruby-original-e)" d="M88.996 92.797l-12.882-50.46-36.866 34.558z"></path>
      <linearGradient id="ruby-original-f" gradientUnits="userSpaceOnUse" x1="140.691" y1="2497.523" x2="146.289"
        y2="2473.401" gradientTransform="matrix(1 0 0 -1 -47.5 2517)">
        <stop offset="0" stop-color="#fff"></stop>
        <stop offset="0" stop-color="#fff"></stop>
        <stop offset=".18" stop-color="#E46342"></stop>
        <stop offset=".4" stop-color="#C82410"></stop>
        <stop offset=".99" stop-color="#A80D00"></stop>
        <stop offset="1" stop-color="#A80D00"></stop>
      </linearGradient>
      <path fill="url(#ruby-original-f)" d="M121.275 43.047L86.426 14.585l-9.704 31.373z"></path>
      <linearGradient id="ruby-original-g" gradientUnits="userSpaceOnUse" x1="123.6" y1="2506.018" x2="147.719"
        y2="2518.077" gradientTransform="matrix(1 0 0 -1 -47.5 2517)">
        <stop offset="0" stop-color="#fff"></stop>
        <stop offset="0" stop-color="#fff"></stop>
        <stop offset=".54" stop-color="#C81F11"></stop>
        <stop offset=".99" stop-color="#BF0905"></stop>
        <stop offset="1" stop-color="#BF0905"></stop>
      </linearGradient>
      <path fill="url(#ruby-original-g)" d="M104.978 4.437L84.481 15.764 71.551 4.285z"></path>
      <linearGradient id="ruby-original-h" gradientUnits="userSpaceOnUse" x1="53.674" y1="2444.028" x2="55.66"
        y2="2424.153" gradientTransform="matrix(1 0 0 -1 -47.5 2517)">
        <stop offset="0" stop-color="#fff"></stop>
        <stop offset="0" stop-color="#fff"></stop>
        <stop offset=".31" stop-color="#DE4024"></stop>
        <stop offset=".99" stop-color="#BF190B"></stop>
        <stop offset="1" stop-color="#BF190B"></stop>
      </linearGradient>
      <path fill="url(#ruby-original-h)" d="M3.802 100.034l8.586-15.659L5.442 65.72z"></path>
      <path fill="#fff"
        d="M4.981 65.131l6.987 19.821 30.365-6.812L77 45.922l9.783-31.075L71.38 3.969l-26.19 9.802c-8.252 7.675-24.263 22.86-24.84 23.146-.573.291-10.575 19.195-15.369 28.214z">
      </path>
      <linearGradient id="ruby-original-i" gradientUnits="userSpaceOnUse" x1="40.026" y1="2418.781" x2="133.345"
        y2="2514.739" gradientTransform="matrix(1 0 0 -1 -47.5 2517)">
        <stop offset="0" stop-color="#BD0012"></stop>
        <stop offset="0" stop-color="#BD0012"></stop>
        <stop offset=".07" stop-color="#fff"></stop>
        <stop offset=".17" stop-color="#fff"></stop>
        <stop offset=".27" stop-color="#C82F1C"></stop>
        <stop offset=".33" stop-color="#820C01"></stop>
        <stop offset=".46" stop-color="#A31601"></stop>
        <stop offset=".72" stop-color="#B31301"></stop>
        <stop offset=".99" stop-color="#E82609"></stop>
        <stop offset="1" stop-color="#E82609"></stop>
      </linearGradient>
      <path fill="url(#ruby-original-i)"
        d="M29.519 29.521c17.882-17.73 40.937-28.207 49.785-19.28 8.843 8.926-.534 30.62-18.418 48.345-17.884 17.725-40.653 28.779-49.493 19.852-8.849-8.92.242-31.191 18.126-48.917z">
      </path>
      <linearGradient id="ruby-original-j" gradientUnits="userSpaceOnUse" x1="111.507" y1="2409.102" x2="83.398"
        y2="2416.039" gradientTransform="matrix(1 0 0 -1 -47.5 2517)">
        <stop offset="0" stop-color="#8C0C01"></stop>
        <stop offset="0" stop-color="#8C0C01"></stop>
        <stop offset=".54" stop-color="#990C00"></stop>
        <stop offset=".99" stop-color="#A80D0E"></stop>
        <stop offset="1" stop-color="#A80D0E"></stop>
      </linearGradient>
      <path fill="url(#ruby-original-j)"
        d="M28.717 123.909l13.89-46.012 46.135 14.82c-16.68 15.642-35.233 28.865-60.025 31.192z"></path>
      <linearGradient id="ruby-original-k" gradientUnits="userSpaceOnUse" x1="159.785" y1="2442.837" x2="134.814"
        y2="2465.217" gradientTransform="matrix(1 0 0 -1 -47.5 2517)">
        <stop offset="0" stop-color="#7E110B"></stop>
        <stop offset="0" stop-color="#7E110B"></stop>
        <stop offset=".99" stop-color="#9E0C00"></stop>
        <stop offset="1" stop-color="#9E0C00"></stop>
      </linearGradient>
      <path fill="url(#ruby-original-k)"
        d="M77.062 45.831l11.844 46.911c13.934-14.65 26.439-30.401 32.563-49.883l-44.407 2.972z"></path>
      <linearGradient id="ruby-original-l" gradientUnits="userSpaceOnUse" x1="168.959" y1="2483.901" x2="156.521"
        y2="2497.199" gradientTransform="matrix(1 0 0 -1 -47.5 2517)">
        <stop offset="0" stop-color="#79130D"></stop>
        <stop offset="0" stop-color="#79130D"></stop>
        <stop offset=".99" stop-color="#9E120B"></stop>
        <stop offset="1" stop-color="#9E120B"></stop>
      </linearGradient>
      <path fill="url(#ruby-original-l)"
        d="M121.348 43.097c4.74-14.305 5.833-34.825-16.517-38.635l-18.339 10.13 34.856 28.505z"></path>
      <path fill="#9E1209" d="M3.802 99.828c.656 23.608 17.689 23.959 24.945 24.167l-16.759-39.14-8.186 14.973z"></path>
      <radialGradient id="ruby-original-m" cx="138.703" cy="2464.789" r="30.601"
        gradientTransform="matrix(1 0 0 -1 -47.5 2517)" gradientUnits="userSpaceOnUse">
        <stop offset="0" stop-color="#A80D00"></stop>
        <stop offset="0" stop-color="#A80D00"></stop>
        <stop offset=".99" stop-color="#7E0E08"></stop>
        <stop offset="1" stop-color="#7E0E08"></stop>
      </radialGradient>
      <path fill="url(#ruby-original-m)"
        d="M77.128 45.904c10.708 6.581 32.286 19.798 32.723 20.041.68.383 9.304-14.542 11.261-22.976l-43.984 2.935z">
      </path>
      <radialGradient id="ruby-original-n" cx="96.325" cy="2424.465" r="40.679"
        gradientTransform="matrix(1 0 0 -1 -47.5 2517)" gradientUnits="userSpaceOnUse">
        <stop offset="0" stop-color="#A30C00"></stop>
        <stop offset="0" stop-color="#A30C00"></stop>
        <stop offset=".99" stop-color="#800E08"></stop>
        <stop offset="1" stop-color="#800E08"></stop>
      </radialGradient>
      <path fill="url(#ruby-original-n)"
        d="M42.589 77.897l18.57 35.828c10.98-5.955 19.579-13.211 27.454-20.983L42.589 77.897z"></path>
      <linearGradient id="ruby-original-o" gradientUnits="userSpaceOnUse" x1="67.509" y1="2393.115" x2="57.373"
        y2="2427.506" gradientTransform="matrix(1 0 0 -1 -47.5 2517)">
        <stop offset="0" stop-color="#8B2114"></stop>
        <stop offset="0" stop-color="#8B2114"></stop>
        <stop offset=".43" stop-color="#9E100A"></stop>
        <stop offset=".99" stop-color="#B3100C"></stop>
        <stop offset="1" stop-color="#B3100C"></stop>
      </linearGradient>
      <path fill="url(#ruby-original-o)"
        d="M11.914 84.904l-2.631 31.331c4.964 6.781 11.794 7.371 18.96 6.842-5.184-12.9-15.538-38.696-16.329-38.173z">
      </path>
      <linearGradient id="ruby-original-p" gradientUnits="userSpaceOnUse" x1="145.272" y1="2507.076" x2="167.996"
        y2="2497.045" gradientTransform="matrix(1 0 0 -1 -47.5 2517)">
        <stop offset="0" stop-color="#B31000"></stop>
        <stop offset="0" stop-color="#B31000"></stop>
        <stop offset=".44" stop-color="#910F08"></stop>
        <stop offset=".99" stop-color="#791C12"></stop>
        <stop offset="1" stop-color="#791C12"></stop>
      </linearGradient>
      <path fill="url(#ruby-original-p)"
        d="M86.384 14.67l36.891 5.177c-1.969-8.343-8.015-13.727-18.32-15.41L86.384 14.67z"></path>
    </symbol>

    <!-- ruby on rails icon -->
    <symbol id="ror" viewBox="0 0 128 128">
      <path fill="#C00"
        d="M122 72.3h-5.3v-2.7h10.5v-5.9h-10c-2.6 0-6.1 2.1-6.1 6.1v2c0 4 3.4 6 6.1 6h5v2.8l-10.8.1v5.9H122c2.2 0 5.9-1.6 6-6v-2.3c0-3.8-3.1-6-6-6zM60.4 71.4c0-7.3-6.9-8-6.9-8H41.2v23.1h6.2V81l5.4 5.6H62l-7.3-7.4s5.7-.5 5.7-7.8zm-8.1 3.1h-5v-5.3h5s1.4.5 1.4 2.6c0 2.2-1.4 2.7-1.4 2.7zM75.7 63.6h-6.3c-4.5 0-6 4.1-6 6v16.9h6.3v-4h5.9v4h6.1V69.6c0-4.9-4.4-6-6-6zm-.1 12.3h-6v-5.6s0-1.3 2-1.3h2.2c1.7 0 1.8 1.3 1.8 1.3v5.6zM84.6 63.6h6.6v22.9h-6.6zM100.4 63.6h-6.5v22.9h15.3v-5.9h-8.8z">
      </path>
      <path fill="#C00"
        d="M72.2 60.7c.6-.5 1.1-.9 1.1-.9S56.5 43 37.7 44.9c-9.4.8-21 9.4-27.8 20.7-6.8 11.3-7.7 20.9-7.7 20.9h25.6s-4.9-22.3 11.3-31.3c3.5-1.7 14.8-8.1 33.1 5.5zM55.5 44.5c-.3-.2-1.1-.6-3.1-1.1l-.1 2.1c1.1.4 2.1.8 3.1 1.2l.1-2.2z">
      </path>
      <path fill="#C00"
        d="M55.5 55.9l.1-2c-1.1-.2-2.2-.3-3.2-.4l-.1 2c1.1 0 2.1.2 3.2.4zM40.4 43.5h.3l-.6-2c-1 0-2 .1-3.1.2l.6 1.9c.9-.1 1.8-.1 2.8-.1zM42.6 57.6c.9-.5 1.9-.8 2.8-1.1l-.7-2.1c-1 .2-2 .6-2.8 1l.7 2.2zM27.2 46.9l-1.5-2.2c-.7.3-1.6.8-2.4 1.3l1.5 2.3c.8-.5 1.6-1 2.4-1.4zM33.9 61.4l1.6 2.3c.6-.8 1.2-1.6 1.9-2.3l-1.5-2.2c-.8.7-1.4 1.5-2 2.2zM30.2 68.3c-.5 1.2-.8 2.4-1 3.5l2.6 2.1c.1-1.3.4-2.5.7-3.8l-2.3-1.8zM15 56.5l-2.3-2c-.8.8-1.7 1.6-2.4 2.4l2.5 2.1c.7-.9 1.4-1.7 2.2-2.5zM5.2 70.9l-3.7-1.4c-.6 1.4-1.3 3-1.6 3.9l3.7 1.4c.4-1.1 1.1-2.7 1.6-3.9zM28.7 80c.1 1.7.2 3.1.4 4.1l3.9 1.4c-.3-1.3-.6-2.7-.8-4.2L28.7 80z">
      </path>
    </symbol>

    <!-- remix icon -->
    <symbol id="remix" shape-rendering="geometricPrecision" text-rendering="geometricPrecision"
      image-rendering="optimizeQuality" fill-rule="evenodd" clip-rule="evenodd" viewBox="0 0 445 512.13">
      <path fill="#121212" fill-rule="nonzero"
        d="M0 512.13v-79.52h144.76c24.18 0 29.43 17.93 29.43 28.62v50.9H0zm425.45-117.19c4.61 59.17 4.61 86.91 4.61 117.19H293.15c0-6.6.12-12.63.24-18.75.37-19.01.76-38.84-2.32-78.89-4.08-58.63-29.32-71.66-75.75-71.66H0V236.15h221.84c58.64 0 87.96-17.84 87.96-65.07 0-41.53-29.32-66.69-87.96-66.69H0V0h246.27C379.03 0 445 62.7 445 162.86c0 74.92-46.42 123.78-109.14 131.92 52.94 10.59 83.89 40.72 89.59 100.16z" />
    </symbol>

    <!-- git icon -->
    <symbol id="git" viewBox="0 0 128 128">
      <path fill="#F34F29"
        d="M124.737 58.378L69.621 3.264c-3.172-3.174-8.32-3.174-11.497 0L46.68 14.71l14.518 14.518c3.375-1.139 7.243-.375 9.932 2.314 2.703 2.706 3.461 6.607 2.294 9.993l13.992 13.993c3.385-1.167 7.292-.413 9.994 2.295 3.78 3.777 3.78 9.9 0 13.679a9.673 9.673 0 01-13.683 0 9.677 9.677 0 01-2.105-10.521L68.574 47.933l-.002 34.341a9.708 9.708 0 012.559 1.828c3.778 3.777 3.778 9.898 0 13.683-3.779 3.777-9.904 3.777-13.679 0-3.778-3.784-3.778-9.905 0-13.683a9.65 9.65 0 013.167-2.11V47.333a9.581 9.581 0 01-3.167-2.111c-2.862-2.86-3.551-7.06-2.083-10.576L41.056 20.333 3.264 58.123a8.133 8.133 0 000 11.5l55.117 55.114c3.174 3.174 8.32 3.174 11.499 0l54.858-54.858a8.135 8.135 0 00-.001-11.501z">
      </path>
    </symbol>

    <!-- git hub icon -->
    <symbol id="git-hub" viewBox="0 0 98 98">
      <path fill-rule="evenodd" clip-rule="evenodd"
        d="M48.854 0C21.839 0 0 22 0 49.217c0 21.756 13.993 40.172 33.405 46.69 2.427.49 3.316-1.059 3.316-2.362 0-1.141-.08-5.052-.08-9.127-13.59 2.934-16.42-5.867-16.42-5.867-2.184-5.704-5.42-7.17-5.42-7.17-4.448-3.015.324-3.015.324-3.015 4.934.326 7.523 5.052 7.523 5.052 4.367 7.496 11.404 5.378 14.235 4.074.404-3.178 1.699-5.378 3.074-6.6-10.839-1.141-22.243-5.378-22.243-24.283 0-5.378 1.94-9.778 5.014-13.2-.485-1.222-2.184-6.275.486-13.038 0 0 4.125-1.304 13.426 5.052a46.97 46.97 0 0 1 12.214-1.63c4.125 0 8.33.571 12.213 1.63 9.302-6.356 13.427-5.052 13.427-5.052 2.67 6.763.97 11.816.485 13.038 3.155 3.422 5.015 7.822 5.015 13.2 0 18.905-11.404 23.06-22.324 24.283 1.78 1.548 3.316 4.481 3.316 9.126 0 6.6-.08 11.897-.08 13.526 0 1.304.89 2.853 3.316 2.364 19.412-6.52 33.405-24.935 33.405-46.691C97.707 22 75.788 0 48.854 0z"
        fill="#24292f" />
    </symbol>

    <!-- docker icon -->
    <symbol id="docker" viewBox="0 0 128 128">
      <path fill-rule="evenodd" clip-rule="evenodd" fill="#3A4D54"
        d="M73.8 50.8h11.3v11.5h5.7c2.6 0 5.3-.5 7.8-1.3 1.2-.4 2.6-1 3.8-1.7-1.6-2.1-2.4-4.7-2.6-7.3-.3-3.5.4-8.1 2.8-10.8l1.2-1.4 1.4 1.1c3.6 2.9 6.5 6.8 7.1 11.4 4.3-1.3 9.3-1 13.1 1.2l1.5.9-.8 1.6c-3.2 6.2-9.9 8.2-16.4 7.8-9.8 24.3-31 35.8-56.8 35.8-13.3 0-25.5-5-32.5-16.8l-.1-.2-1-2.1c-2.4-5.2-3.1-10.9-2.6-16.6l.2-1.7h9.6V50.8h11.3V39.6h22.5V28.3h13.5v22.5z">
      </path>
      <path fill="#00AADA"
        d="M110.4 55.1c.8-5.9-3.6-10.5-6.4-12.7-3.1 3.6-3.6 13.2 1.3 17.2-2.8 2.4-8.5 4.7-14.5 4.7H18.6c-.6 6.2.5 11.9 3 16.8l.8 1.5c.5.9 1.1 1.7 1.7 2.6 3 .2 5.7.3 8.2.2 4.9-.1 8.9-.7 12-1.7.5-.2.9.1 1.1.5.2.5-.1.9-.5 1.1-.4.1-.8.3-1.3.4-2.4.7-5 1.1-8.3 1.3h-.6c-1.3.1-2.7.1-4.2.1-1.6 0-3.1 0-4.9-.1 6 6.8 15.4 10.8 27.2 10.8 25 0 46.2-11.1 55.5-35.9 6.7.7 13.1-1 16-6.7-4.5-2.7-10.5-1.8-13.9-.1z">
      </path>
      <path fill="#28B8EB"
        d="M110.4 55.1c.8-5.9-3.6-10.5-6.4-12.7-3.1 3.6-3.6 13.2 1.3 17.2-2.8 2.4-8.5 4.7-14.5 4.7h-68c-.3 9.5 3.2 16.7 9.5 21 4.9-.1 8.9-.7 12-1.7.5-.2.9.1 1.1.5.2.5-.1.9-.5 1.1-.4.1-.8.3-1.3.4-2.4.7-5.2 1.2-8.5 1.4l-.1-.1c8.5 4.4 20.8 4.3 35-1.1 15.8-6.1 30.6-17.7 40.9-30.9-.2.1-.4.1-.5.2z">
      </path>
      <path fill="#028BB8"
        d="M18.7 71.8c.4 3.3 1.4 6.4 2.9 9.3l.8 1.5c.5.9 1.1 1.7 1.7 2.6 3 .2 5.7.3 8.2.2 4.9-.1 8.9-.7 12-1.7.5-.2.9.1 1.1.5.2.5-.1.9-.5 1.1-.4.1-.8.3-1.3.4-2.4.7-5.2 1.2-8.5 1.4h-.4c-1.3.1-2.7.1-4.1.1-1.6 0-3.2 0-4.9-.1 6 6.8 15.5 10.8 27.3 10.8 21.4 0 40-8.1 50.8-26H18.7v-.1z">
      </path>
      <path fill="#019BC6"
        d="M23.5 71.8c1.3 5.8 4.3 10.4 8.8 13.5 4.9-.1 8.9-.7 12-1.7.5-.2.9.1 1.1.5.2.5-.1.9-.5 1.1-.4.1-.8.3-1.3.4-2.4.7-5.2 1.2-8.6 1.4 8.5 4.4 20.8 4.3 34.9-1.1 8.5-3.3 16.8-8.2 24.2-14.1H23.5z">
      </path>
      <path fill-rule="evenodd" clip-rule="evenodd" fill="#00ACD3"
        d="M28.4 52.7h9.8v9.8h-9.8v-9.8zm.8.8h.8v8.1h-.8v-8.1zm1.4 0h.8v8.1h-.8v-8.1zm1.5 0h.8v8.1h-.8v-8.1zm1.5 0h.8v8.1h-.8v-8.1zm1.5 0h.8v8.1h-.8v-8.1zm1.5 0h.8v8.1h-.8v-8.1zm3-12h9.8v9.8h-9.8v-9.8zm.9.8h.8v8.1h-.8v-8.1zm1.4 0h.8v8.1h-.8v-8.1zm1.5 0h.8v8.1h-.8v-8.1zm1.5 0h.8v8.1h-.8v-8.1zm1.4 0h.8v8.1h-.8v-8.1zm1.5 0h.8v8.1h-.8v-8.1z">
      </path>
      <path fill-rule="evenodd" clip-rule="evenodd" fill="#23C2EE"
        d="M39.6 52.7h9.8v9.8h-9.8v-9.8zm.9.8h.8v8.1h-.8v-8.1zm1.4 0h.8v8.1h-.8v-8.1zm1.5 0h.8v8.1h-.8v-8.1zm1.5 0h.8v8.1h-.8v-8.1zm1.4 0h.8v8.1h-.8v-8.1zm1.5 0h.8v8.1h-.8v-8.1z">
      </path>
      <path fill-rule="evenodd" clip-rule="evenodd" fill="#00ACD3"
        d="M50.9 52.7h9.8v9.8h-9.8v-9.8zm.8.8h.8v8.1h-.8v-8.1zm1.5 0h.8v8.1h-.8v-8.1zm1.5 0h.8v8.1h-.8v-8.1zm1.4 0h.8v8.1h-.8v-8.1zm1.5 0h.8v8.1h-.8v-8.1zm1.5 0h.8v8.1h-.8v-8.1z">
      </path>
      <path fill-rule="evenodd" clip-rule="evenodd" fill="#23C2EE"
        d="M50.9 41.5h9.8v9.8h-9.8v-9.8zm.8.8h.8v8.1h-.8v-8.1zm1.5 0h.8v8.1h-.8v-8.1zm1.5 0h.8v8.1h-.8v-8.1zm1.4 0h.8v8.1h-.8v-8.1zm1.5 0h.8v8.1h-.8v-8.1zm1.5 0h.8v8.1h-.8v-8.1zm3.1 10.4H72v9.8h-9.8v-9.8zm.8.8h.8v8.1H63v-8.1zm1.5 0h.8v8.1h-.8v-8.1zm1.4 0h.8v8.1h-.8v-8.1zm1.5 0h.8v8.1h-.8v-8.1zm1.5 0h.8v8.1h-.8v-8.1zm1.5 0h.8v8.1h-.8v-8.1z">
      </path>
      <path fill-rule="evenodd" clip-rule="evenodd" fill="#00ACD3"
        d="M62.2 41.5H72v9.8h-9.8v-9.8zm.8.8h.8v8.1H63v-8.1zm1.5 0h.8v8.1h-.8v-8.1zm1.4 0h.8v8.1h-.8v-8.1zm1.5 0h.8v8.1h-.8v-8.1zm1.5 0h.8v8.1h-.8v-8.1zm1.5 0h.8v8.1h-.8v-8.1z">
      </path>
      <path fill-rule="evenodd" clip-rule="evenodd" fill="#23C2EE"
        d="M62.2 30.2H72V40h-9.8v-9.8zm.8.8h.8v8.1H63V31zm1.5 0h.8v8.1h-.8V31zm1.4 0h.8v8.1h-.8V31zm1.5 0h.8v8.1h-.8V31zm1.5 0h.8v8.1h-.8V31zm1.5 0h.8v8.1h-.8V31z">
      </path>
      <path fill-rule="evenodd" clip-rule="evenodd" fill="#00ACD3"
        d="M73.5 52.7h9.8v9.8h-9.8v-9.8zm.8.8h.8v8.1h-.8v-8.1zm1.4 0h.8v8.1h-.8v-8.1zm1.5 0h.8v8.1h-.8v-8.1zm1.5 0h.8v8.1h-.8v-8.1zm1.5 0h.8v8.1h-.8v-8.1zm1.5 0h.8v8.1h-.8v-8.1z">
      </path>
      <path fill-rule="evenodd" clip-rule="evenodd" fill="#D4EEF1"
        d="M48.8 78.3c1.5 0 2.7 1.2 2.7 2.7 0 1.5-1.2 2.7-2.7 2.7-1.5 0-2.7-1.2-2.7-2.7 0-1.5 1.2-2.7 2.7-2.7"></path>
      <path fill-rule="evenodd" clip-rule="evenodd" fill="#3A4D54"
        d="M48.8 79.1c.2 0 .5 0 .7.1-.2.1-.4.4-.4.7 0 .4.4.8.8.8.3 0 .6-.2.7-.4.1.2.1.5.1.7 0 1.1-.9 1.9-1.9 1.9-1.1 0-1.9-.9-1.9-1.9 0-1 .8-1.9 1.9-1.9M1.1 72.8h125.4c-2.7-.7-8.6-1.6-7.7-5.2-5 5.7-16.9 4-20 1.2-3.4 4.9-23 3-24.3-.8-4.2 5-17.3 5-21.5 0-1.4 3.8-21 5.7-24.3.8-3 2.8-15 4.5-20-1.2 1.1 3.5-4.9 4.5-7.6 5.2">
      </path>
      <path fill="#BFDBE0"
        d="M56 97.8c-6.7-3.2-10.3-7.5-12.4-12.2-2.5.7-5.5 1.2-8.9 1.4-1.3.1-2.7.1-4.1.1-1.7 0-3.4 0-5.2-.1 6 6 13.6 10.7 27.5 10.8H56z">
      </path>
      <path fill="#D4EEF1" d="M46.1 89.9c-.9-1.3-1.8-2.8-2.5-4.3-2.5.7-5.5 1.2-8.9 1.4 2.3 1.2 5.7 2.4 11.4 2.9z">
      </path>
    </symbol>


    <!-- docker icon -->
    <symbol id="digital-ocean" viewBox="0 0 128 128">
      <path fill="#0080ff"
        d="M64.1424 102.9593H39.2391V78.5231h24.9033ZM39.2391 122.132H20.3732v-19.1726h18.866Zm-18.8659-19.1726H4.5301v-15.792h15.8431Zm43.3934 24.8132v-24.8132c26.4107 0 46.784-25.9396 36.5973-53.3885-3.7744-10.1506-11.694-18.419-22.2605-22.1813-27.1663-9.7717-53.2 10.5274-53.2 36.468H0C0 22.5037 40.3707-10.206 84.5197 3.3281c19.2427 6.0173 34.3342 21.0547 40.3706 40.2293 13.5812 43.9857-19.2457 84.215-61.1237 84.215Zm0 0">
      </path>
    </symbol>

    <!-- swagger icon -->
    <symbol id="swagger" viewBox="0 0 128 128">
      <path fill="#85ea2d"
        d="M63.999 124.945c-33.607 0-60.95-27.34-60.95-60.949C3.05 30.388 30.392 3.048 64 3.048s60.95 27.342 60.95 60.95c0 33.607-27.343 60.946-60.95 60.946z">
      </path>
      <path fill="#173647"
        d="M40.3 43.311c-.198 2.19.072 4.454-.073 6.668-.173 2.217-.444 4.407-.888 6.596-.615 3.126-2.56 5.489-5.24 7.458 5.218 3.396 5.807 8.662 6.152 14.003.172 2.88.098 5.785.394 8.638.221 2.215 1.082 2.782 3.372 2.854.935.025 1.894 0 2.978 0v6.842c-6.768 1.156-12.354-.762-13.734-6.496a39.329 39.329 0 0 1-.836-6.4c-.148-2.287.097-4.577-.074-6.864-.492-6.277-1.305-8.393-7.308-8.689v-7.8c.441-.1.86-.174 1.302-.223 3.298-.172 4.701-1.182 5.414-4.43a37.512 37.512 0 0 0 .616-5.536c.247-3.569.148-7.21.763-10.754.86-5.094 4.01-7.556 9.254-7.852 1.476-.074 2.978 0 4.676 0v6.99c-.714.05-1.33.147-1.969.147-4.258-.148-4.48 1.304-4.8 4.848zm8.195 16.193h-.099c-2.462-.123-4.578 1.796-4.702 4.258-.122 2.485 1.797 4.603 4.259 4.724h.295c2.436.148 4.527-1.724 4.676-4.16v-.245c.05-2.486-1.944-4.527-4.43-4.577zm15.43 0c-2.386-.074-4.38 1.796-4.454 4.159 0 .149 0 .271.024.418 0 2.684 1.821 4.406 4.578 4.406 2.707 0 4.406-1.772 4.406-4.553-.025-2.682-1.823-4.455-4.554-4.43Zm15.801 0a4.596 4.596 0 0 0-4.676 4.454 4.515 4.515 0 0 0 4.528 4.528h.05c2.264.394 4.553-1.796 4.701-4.429.122-2.437-2.092-4.553-4.604-4.553Zm21.682.369c-2.855-.123-4.284-1.083-4.996-3.79a27.444 27.444 0 0 1-.811-5.292c-.198-3.298-.174-6.62-.395-9.918-.516-7.826-6.177-10.557-14.397-9.205v6.792c1.304 0 2.313 0 3.322.025 1.748.024 3.077.69 3.249 2.634.172 1.772.172 3.568.344 5.365.346 3.57.542 7.187 1.157 10.706.542 2.904 2.536 5.07 5.02 6.841-4.355 2.929-5.636 7.113-5.857 11.814-.122 3.223-.196 6.472-.368 9.721-.148 2.953-1.181 3.913-4.16 3.987-.835.024-1.648.098-2.583.148v6.964c1.748 0 3.347.1 4.946 0 4.971-.295 7.974-2.706 8.96-7.531.417-2.658.662-5.34.737-8.023.171-2.46.148-4.946.394-7.382.369-3.815 2.116-5.389 5.93-5.636a5.161 5.161 0 0 0 1.06-.245v-7.801c-.64-.074-1.084-.148-1.552-.173zM64 6.1c31.977 0 57.9 25.92 57.9 57.898 0 31.977-25.923 57.899-57.9 57.899-31.976 0-57.898-25.922-57.898-57.9C6.102 32.023 32.024 6.101 64 6.101m0-6.1C28.71 0 0 28.71 0 64c0 35.288 28.71 63.998 64 63.998 35.289 0 64-28.71 64-64S99.289.002 64 .002Z">
      </path>
    </symbol>

    <!-- heroku icon -->
    <symbol id="heroku" viewBox="0 0 128 128">
      <path
        d="M114 13.9C114 7.3 108.7 2 102.1 2H25.9C19.3 2 14 7.3 14 13.9v100.3c0 6.6 5.3 11.9 11.9 11.9h76.3c6.6 0 11.9-5.3 11.9-11.9V13.9zm-4 .1v99.3c0 4.7-3.5 8.7-8.2 8.7H26.5c-4.7 0-8.5-4-8.5-8.7V14c0-4.7 3.9-8 8.5-8h75.2c4.7 0 8.4 3.6 8.4 8.3l-.1-.3zm-73 94.7l14.1-14.1L37 80.5zm14-60.9V18.4l-13.9.1s.1 45.9.2 45.7C80.1 47.5 77 59.4 77 59.4v49.4l-.1.2H90V59.5c0-27.1-39-11.7-39-11.7zM70 36h14.8c8-10 10.7-17 10.7-17H80.2S75.3 30 70 36z"
        fill="#6762A6"></path>
    </symbol>

    <!-- postman icon -->
    <symbol id="postman" viewBox="0 0 128 128">
      <path fill="#f37036"
        d="M113.117 26.066C92.168-1.062 53.191-6.07 26.062 14.883c-27.125 20.953-32.128 59.93-11.175 87.055 20.957 27.124 59.937 32.124 87.058 11.167 27.114-20.953 32.118-59.918 11.172-87.039Zm0 0">
      </path>
      <path fill="#fff"
        d="M91.078 24.164a10.038 10.038 0 0 0-5.781 2.426 10.028 10.028 0 0 0-1.54 13.465 10.028 10.028 0 0 0 13.276 2.715h.002v.001l.156.155a10.63 10.63 0 0 0 1.965-1.45A10.341 10.341 0 0 0 99 27.107v-.002l-8.844 8.789-.156-.155 8.844-8.793a10.038 10.038 0 0 0-7.766-2.78zM79.434 38.551c-4.24-.007-11.163 4.799-28.067 21.703l.084.086c-.092-.032-.185-.035-.185-.035l-6.364 6.308a1.035 1.035 0 0 0 .93 1.762l10.914-2.328a.307.307 0 0 0 .092-.17l.242.25-3.72 3.69h-.18l-22.086 22.26 7.086 6.824a1.254 1.254 0 0 0 1.476.149 1.327 1.327 0 0 0 .645-1.356l-1.035-4.5a.534.534 0 0 1 0-.62 117.285 117.285 0 0 0 26.738-17.583l-4.535-4.537.086-.014-2.69-2.689.172-.174.182.186-.094.091 7.137 7.293v-.003c13.68-12.954 23.39-23.367 20.865-30.375a3.83 3.83 0 0 0-1.107-2.208v.004a3.778 3.778 0 0 0-.483-.306c-.083-.088-.156-.178-.244-.264l-.066.066a3.778 3.778 0 0 0-.582-.29l.289-.292c-1.796-1.6-3.28-2.924-5.5-2.93zM30.94 92.21l-5.171 5.172v.004a1.03 1.03 0 0 0-.457 1.125 1.035 1.035 0 0 0 .921.789l12.672.875-7.965-7.965z">
      </path>
      <path fill="#f37036"
        d="M91.95 23.31a11.047 11.047 0 0 0-7.759 3.17 10.988 10.988 0 0 0-2.39 11.641c-4.741-2.03-11.155 1.51-31.106 21.457a.932.932 0 0 0-.037.094 1.242 1.242 0 0 0-.119.062l-6.309 6.364a1.97 1.97 0 0 0-.363 2.324 2.012 2.012 0 0 0 1.707.984l.313-.203 8.424-1.797-4.03 4.067a.873.873 0 0 0-.054.166l-19.75 19.799a.798.798 0 0 0-.192.238l-5.086 5.09a1.967 1.967 0 0 0-.414 2.043 1.995 1.995 0 0 0 1.656 1.265l12.618.88a1.01 1.01 0 0 0 .52-.415.886.886 0 0 0 0-1.035l-.026-.025a2.243 2.243 0 0 0 .705-.58 2.237 2.237 0 0 0 .406-1.876l-.984-4.187a126.725 126.725 0 0 0 26.334-16.861 1.091 1.091 0 0 0 .248.103c.254-.019.492-.128.672-.308 13.55-12.83 21.515-21.622 21.515-28.602a8.03 8.03 0 0 0-.431-2.85 10.957 10.957 0 0 0 3.845.83l-.015.004a11.219 11.219 0 0 0 5.183-1.45.775.775 0 0 0 .004.001.835.835 0 0 0 .617-.055 9.398 9.398 0 0 0 2.07-1.652 10.873 10.873 0 0 0 3.258-7.758 10.873 10.873 0 0 0-3.257-7.758.93.93 0 0 0-.118-.091 11.045 11.045 0 0 0-7.656-3.078zm-.087 1.772a9.27 9.27 0 0 1 5.586 1.914l-8.068 8.117a.84.84 0 0 0-.076.098.83.83 0 0 0-.239.55.832.832 0 0 0 .313.65h.002l6.1 6.1a9.044 9.044 0 0 1-10.028-1.913c-2.586-2.6-3.336-6.504-1.953-9.891 1.383-3.39 4.68-5.605 8.363-5.625zm7.12 3.432a8.87 8.87 0 0 1 2.033 5.674 9.15 9.15 0 0 1-2.688 6.464 9.989 9.989 0 0 1-1.098.895L92.307 36.7l-.963-.963.265-.265 7.373-6.96zm-.366 4.193a.777.777 0 0 0-.55.031.731.731 0 0 0-.36.426.73.73 0 0 0 .05.559 2.226 2.226 0 0 1-.257 2.328.64.64 0 0 0-.195.488c.004.184.07.36.195.492a.58.58 0 0 0 .414 0 .68.68 0 0 0 .672-.207 3.573 3.573 0 0 0 .465-3.777v.004a.777.777 0 0 0-.434-.344zM79.34 39.43a5.584 5.584 0 0 1 3.31 1.226 4.756 4.756 0 0 0-2.681 1.34L57.162 64.701l-4.476-4.476c11.828-11.772 19.06-17.921 23.556-19.936a5.584 5.584 0 0 1 3.098-.86zm3.965 2.96a2.895 2.895 0 0 1 2.043.844 2.786 2.786 0 0 1 .879 2.121 2.869 2.869 0 0 1-.985 2.07l-24.25 21.106-2.617-2.617 22.887-22.68a2.895 2.895 0 0 1 2.043-.843zm2.994 6.698c-1.69 6.702-10.647 15.783-19.987 24.607l-3.777-3.773L86.3 49.088zM51.367 61.547l.274.27 3.513 3.513-9.63 2.06 5.843-5.843zm5.793 5.84.004.004 1.168 1.195a1.086 1.086 0 0 0 .018.084l.078.012.248.254.82.84-5.385.66 3.05-3.05zm3.867 4.076 3.578 3.576A126.992 126.992 0 0 1 38.75 91.695a1.44 1.44 0 0 0-.777 1.653l1.035 4.5a.31.31 0 0 1 0 .363.31.31 0 0 1-.414 0l-6.102-6.152L51.3 72.975l9.728-1.512zm-29.933 21.94.869.814 4.492 4.492-10.016-.648 4.655-4.659z">
      </path>
    </symbol>
  </defs>
</svg>